REM DIRINDEX 1\2\6,1\2\7,1\2\8,1\2\9,1\3\10,1\3\11,1\4\12,1\4\13,1\4\14,1\5\15,1\5\16,1\5\17
REM DIRNAME folder01,folder02,folder03,folder04,folder05,folder06,folder07,folder08,folder09,folder10,folder11,folder12,folder13,folder14,folder15,folder16,folder17
TITLE ""
FILE "1400_3_sec01_0050_0066.mp3" MP3
  TRACK 01 AUDIO
    TITLE "0:"
    INDEX 01 00:00:00
  TRACK 02 AUDIO
    TITLE "17:cjc029_4526"
    INDEX 01 00:00:15
  TRACK 03 AUDIO
    TITLE "0:"
    INDEX 01 00:01:19
  TRACK 04 AUDIO
    TITLE "16:cjc029_4527"
    INDEX 01 00:01:26
  TRACK 05 AUDIO
    TITLE "0:"
    INDEX 01 00:02:22
  TRACK 06 AUDIO
    TITLE "17:cjc029_4528"
    INDEX 01 00:03:08
  TRACK 07 AUDIO
    TITLE "0:"
    INDEX 01 00:04:13
  TRACK 08 AUDIO
    TITLE "16:cjc029_4529"
    INDEX 01 00:04:19
  TRACK 09 AUDIO
    TITLE "0:"
    INDEX 01 00:05:26
  TRACK 10 AUDIO
    TITLE "17:cjc029_4530"
    INDEX 01 00:06:10
  TRACK 11 AUDIO
    TITLE "0:"
    INDEX 01 00:07:13
  TRACK 12 AUDIO
    TITLE "16:cjc029_4531"
    INDEX 01 00:07:19
  TRACK 13 AUDIO
    TITLE "0:"
    INDEX 01 00:08:26
  TRACK 14 AUDIO
    TITLE "17:cjc029_4532"
    INDEX 01 00:09:12
  TRACK 15 AUDIO
    TITLE "0:"
    INDEX 01 00:10:25
  TRACK 16 AUDIO
    TITLE "16:cjc029_4533"
    INDEX 01 00:10:31
  TRACK 17 AUDIO
    TITLE "0:"
    INDEX 01 00:11:37
  TRACK 18 AUDIO
    TITLE "17:cjc029_4534"
    INDEX 01 00:12:20
  TRACK 19 AUDIO
    TITLE "0:"
    INDEX 01 00:14:43
  TRACK 20 AUDIO
    TITLE "16:cjc029_4535"
    INDEX 01 00:14:47
  TRACK 21 AUDIO
    TITLE "0:"
    INDEX 01 00:15:52
  TRACK 22 AUDIO
    TITLE "17:cjc029_4536"
    INDEX 01 00:16:38
  TRACK 23 AUDIO
    TITLE "0:"
    INDEX 01 00:17:43
  TRACK 24 AUDIO
    TITLE "16:cjc029_4537"
    INDEX 01 00:17:53
  TRACK 25 AUDIO
    TITLE "0:"
    INDEX 01 00:18:56
  TRACK 26 AUDIO
    TITLE "17:cjc029_4538"
    INDEX 01 00:19:36
  TRACK 27 AUDIO
    TITLE "0:"
    INDEX 01 00:20:49
  TRACK 28 AUDIO
    TITLE "16:cjc029_4539"
    INDEX 01 00:20:55
  TRACK 29 AUDIO
    TITLE "0:"
    INDEX 01 00:21:60
  TRACK 30 AUDIO
    TITLE "17:cjc029_4540"
    INDEX 01 00:22:42
  TRACK 31 AUDIO
    TITLE "0:"
    INDEX 01 00:24:65
  TRACK 32 AUDIO
    TITLE "16:cjc029_4541"
    INDEX 01 00:24:71
  TRACK 33 AUDIO
    TITLE "0:"
    INDEX 01 00:26:11
  TRACK 34 AUDIO
    TITLE "17:cjc029_4542"
    INDEX 01 00:26:67
  TRACK 35 AUDIO
    TITLE "0:"
    INDEX 01 00:28:70
  TRACK 36 AUDIO
    TITLE "16:cjc029_4543"
    INDEX 01 00:29:05
  TRACK 37 AUDIO
    TITLE "0:"
    INDEX 01 00:30:10
  TRACK 38 AUDIO
    TITLE "17:cjc029_4544"
    INDEX 01 00:30:69
  TRACK 39 AUDIO
    TITLE "0:"
    INDEX 01 00:32:31
  TRACK 40 AUDIO
    TITLE "16:cjc029_4545"
    INDEX 01 00:32:37
  TRACK 41 AUDIO
    TITLE "0:"
    INDEX 01 00:33:62
  TRACK 42 AUDIO
    TITLE "17:cjc029_4546"
    INDEX 01 00:34:45
  TRACK 43 AUDIO
    TITLE "0:"
    INDEX 01 00:35:59
  TRACK 44 AUDIO
    TITLE "16:cjc029_4547"
    INDEX 01 00:35:64
  TRACK 45 AUDIO
    TITLE "0:"
    INDEX 01 00:37:14
  TRACK 46 AUDIO
    TITLE "17:cjc029_4548"
    INDEX 01 00:37:73
  TRACK 47 AUDIO
    TITLE "0:"
    INDEX 01 00:38:73
  TRACK 48 AUDIO
    TITLE "16:cjc029_4549"
    INDEX 01 00:39:03
  TRACK 49 AUDIO
    TITLE "0:"
    INDEX 01 00:40:23
  TRACK 50 AUDIO
    TITLE "17:cjc029_4550"
    INDEX 01 00:41:04
  TRACK 51 AUDIO
    TITLE "0:"
    INDEX 01 00:42:70
  TRACK 52 AUDIO
    TITLE "16:cjc029_4551"
    INDEX 01 00:42:74
  TRACK 53 AUDIO
    TITLE "0:"
    INDEX 01 00:44:12
  TRACK 54 AUDIO
    TITLE "17:cjc029_4552"
    INDEX 01 00:44:71
  TRACK 55 AUDIO
    TITLE "0:"
    INDEX 01 00:45:61
  TRACK 56 AUDIO
    TITLE "16:cjc029_4553"
    INDEX 01 00:45:69
  TRACK 57 AUDIO
    TITLE "0:"
    INDEX 01 00:47:01
  TRACK 58 AUDIO
    TITLE "17:cjc029_4554"
    INDEX 01 00:47:60
  TRACK 59 AUDIO
    TITLE "0:"
    INDEX 01 00:49:65
  TRACK 60 AUDIO
    TITLE "16:cjc029_4555"
    INDEX 01 00:49:69
  TRACK 61 AUDIO
    TITLE "0:"
    INDEX 01 00:50:72
  TRACK 62 AUDIO
    TITLE "17:cjc029_4556"
    INDEX 01 00:51:54
  TRACK 63 AUDIO
    TITLE "0:"
    INDEX 01 00:52:43
  TRACK 64 AUDIO
    TITLE "16:cjc029_4557"
    INDEX 01 00:52:49
  TRACK 65 AUDIO
    TITLE "0:"
    INDEX 01 00:53:49
  TRACK 66 AUDIO
    TITLE "17:cjc029_4558"
    INDEX 01 00:54:34
  TRACK 67 AUDIO
    TITLE "0:"
    INDEX 01 00:55:46
  TRACK 68 AUDIO
    TITLE "16:cjc029_4559"
    INDEX 01 00:55:51
  TRACK 69 AUDIO
    TITLE "0:"
    INDEX 01 00:57:05
